<svg width="98" height="26" viewBox="0 0 98 26" fill="none" xmlns="http://www.w3.org/2000/svg">
<g filter="url(#filter0_d_12921_4327)">
<mask id="path-1-outside-1_12921_4327" maskUnits="userSpaceOnUse" x="0" y="-0.0957031" width="98" height="26" fill="black">
<rect fill="white" y="-0.0957031" width="98" height="26"/>
<path fill-rule="evenodd" clip-rule="evenodd" d="M3.24189 8.91105H1V12.1458H3.24189L3.27392 24.7324H7.18121V12.1458H10.9284V8.91105H7.18121V6.98943C7.18121 5.4201 7.62959 4.39524 9.61526 4.39524H10.9924V1.06443C10.3199 0.936324 9.58323 0.904297 8.97472 0.904297C5.54783 0.904297 3.24189 2.69781 3.24189 6.98943V8.91105ZM12.9454 24.7298V7.74092H16.895V24.7298H12.9454ZM12.4517 3.58809C12.4517 2.10701 13.4101 1.11963 14.9202 1.11963C16.4594 1.11963 17.3887 2.10701 17.3887 3.58809C17.3887 5.06917 16.4594 6.02752 14.9202 6.02752C13.323 6.02752 12.4517 5.06917 12.4517 3.58809ZM37.1268 11.2305V7.71661H39.5991V5.13198L43.5487 2.43119V7.71661H45.9861V11.2305H43.5487V24.7279H39.5991V11.2305H37.1268ZM78.8124 23.728C74.5117 26.211 69.192 24.7218 66.7526 20.4966C64.2696 16.1959 65.6688 10.8946 69.9694 8.41164C73.2641 6.50947 76.9436 6.90013 79.6145 8.91262L77.3119 11.9522C75.7035 10.7347 73.6495 10.5457 71.8387 11.5912C69.3488 13.0287 68.6348 16.0901 70.0724 18.5799C71.4808 21.0195 74.5036 21.957 77.0186 20.5049L78.8124 23.728ZM87.5617 25.0957C83.467 25.0957 79.198 21.8432 79.198 16.2674C79.198 10.6334 83.3218 7.40992 87.6198 7.40992C89.856 7.40992 91.8307 8.31018 93.0795 9.79126V7.75841H97V24.7473H93.0795V22.5402C91.8307 24.1374 89.7979 25.0957 87.5617 25.0957ZM88.2006 21.4947C91.1338 21.4947 93.2828 19.1424 93.2828 16.2093C93.2828 13.3052 91.1338 10.9819 88.2006 10.9819C85.2966 10.9819 83.0604 13.2762 83.0604 16.2093C83.0604 19.1714 85.2966 21.4947 88.2006 21.4947ZM46.2457 16.2964C46.2457 21.2043 49.8758 25.0957 55.2193 25.0957C59.0527 25.0957 61.6664 23.2662 63.1475 20.5073L59.9239 18.6487C59.1108 20.4783 57.4264 21.6399 55.2193 21.6399C52.4314 21.6399 50.5438 20.0427 49.992 17.6323H63.8154V16.1512C63.8154 11.1271 60.1272 7.40992 55.0741 7.40992C50.1082 7.40992 46.2457 11.3304 46.2457 16.2964ZM50.1953 14.3507C50.8923 12.2597 52.7218 10.8658 55.0741 10.8658C57.5136 10.8658 59.256 12.0564 59.8368 14.3507H50.1953ZM20.7648 7.75841V24.7473H24.6853V15.4252C24.6853 12.434 26.4278 10.8077 28.6639 10.8077C31.2195 10.8077 32.4973 12.434 32.4973 15.0767V24.7473H36.4759V14.6701C36.4759 10.0526 34.0074 7.40992 29.7384 7.40992C27.5313 7.40992 25.7889 8.36827 24.6563 9.84935V7.75841H20.7648Z"/>
</mask>
<path fill-rule="evenodd" clip-rule="evenodd" d="M3.24189 8.91105H1V12.1458H3.24189L3.27392 24.7324H7.18121V12.1458H10.9284V8.91105H7.18121V6.98943C7.18121 5.4201 7.62959 4.39524 9.61526 4.39524H10.9924V1.06443C10.3199 0.936324 9.58323 0.904297 8.97472 0.904297C5.54783 0.904297 3.24189 2.69781 3.24189 6.98943V8.91105ZM12.9454 24.7298V7.74092H16.895V24.7298H12.9454ZM12.4517 3.58809C12.4517 2.10701 13.4101 1.11963 14.9202 1.11963C16.4594 1.11963 17.3887 2.10701 17.3887 3.58809C17.3887 5.06917 16.4594 6.02752 14.9202 6.02752C13.323 6.02752 12.4517 5.06917 12.4517 3.58809ZM37.1268 11.2305V7.71661H39.5991V5.13198L43.5487 2.43119V7.71661H45.9861V11.2305H43.5487V24.7279H39.5991V11.2305H37.1268ZM78.8124 23.728C74.5117 26.211 69.192 24.7218 66.7526 20.4966C64.2696 16.1959 65.6688 10.8946 69.9694 8.41164C73.2641 6.50947 76.9436 6.90013 79.6145 8.91262L77.3119 11.9522C75.7035 10.7347 73.6495 10.5457 71.8387 11.5912C69.3488 13.0287 68.6348 16.0901 70.0724 18.5799C71.4808 21.0195 74.5036 21.957 77.0186 20.5049L78.8124 23.728ZM87.5617 25.0957C83.467 25.0957 79.198 21.8432 79.198 16.2674C79.198 10.6334 83.3218 7.40992 87.6198 7.40992C89.856 7.40992 91.8307 8.31018 93.0795 9.79126V7.75841H97V24.7473H93.0795V22.5402C91.8307 24.1374 89.7979 25.0957 87.5617 25.0957ZM88.2006 21.4947C91.1338 21.4947 93.2828 19.1424 93.2828 16.2093C93.2828 13.3052 91.1338 10.9819 88.2006 10.9819C85.2966 10.9819 83.0604 13.2762 83.0604 16.2093C83.0604 19.1714 85.2966 21.4947 88.2006 21.4947ZM46.2457 16.2964C46.2457 21.2043 49.8758 25.0957 55.2193 25.0957C59.0527 25.0957 61.6664 23.2662 63.1475 20.5073L59.9239 18.6487C59.1108 20.4783 57.4264 21.6399 55.2193 21.6399C52.4314 21.6399 50.5438 20.0427 49.992 17.6323H63.8154V16.1512C63.8154 11.1271 60.1272 7.40992 55.0741 7.40992C50.1082 7.40992 46.2457 11.3304 46.2457 16.2964ZM50.1953 14.3507C50.8923 12.2597 52.7218 10.8658 55.0741 10.8658C57.5136 10.8658 59.256 12.0564 59.8368 14.3507H50.1953ZM20.7648 7.75841V24.7473H24.6853V15.4252C24.6853 12.434 26.4278 10.8077 28.6639 10.8077C31.2195 10.8077 32.4973 12.434 32.4973 15.0767V24.7473H36.4759V14.6701C36.4759 10.0526 34.0074 7.40992 29.7384 7.40992C27.5313 7.40992 25.7889 8.36827 24.6563 9.84935V7.75841H20.7648Z" fill="#28A066"/>
<path d="M1 8.91105V8.49343H0.582387V8.91105H1ZM3.24189 8.91105V9.32866H3.6595V8.91105H3.24189ZM1 12.1458H0.582387V12.5634H1V12.1458ZM3.24189 12.1458L3.6595 12.1447L3.65844 11.7282H3.24189V12.1458ZM3.27392 24.7324L2.85631 24.7334L2.85736 25.15H3.27392V24.7324ZM7.18121 24.7324V25.15H7.59882V24.7324H7.18121ZM7.18121 12.1458V11.7282H6.7636V12.1458H7.18121ZM10.9284 12.1458V12.5634H11.346V12.1458H10.9284ZM10.9284 8.91105H11.346V8.49343H10.9284V8.91105ZM7.18121 8.91105H6.7636V9.32866H7.18121V8.91105ZM10.9924 4.39524V4.81285H11.41V4.39524H10.9924ZM10.9924 1.06443H11.41V0.718856L11.0706 0.654195L10.9924 1.06443ZM12.9454 7.74092V7.32331H12.5278V7.74092H12.9454ZM12.9454 24.7298H12.5278V25.1474H12.9454V24.7298ZM16.895 7.74092H17.3126V7.32331H16.895V7.74092ZM16.895 24.7298V25.1474H17.3126V24.7298H16.895ZM37.1268 7.71661V7.299H36.7092V7.71661H37.1268ZM37.1268 11.2305H36.7092V11.6482H37.1268V11.2305ZM39.5991 7.71661V8.13423H40.0167V7.71661H39.5991ZM39.5991 5.13198L39.3634 4.78726L39.1815 4.91164V5.13198H39.5991ZM43.5487 2.43119H43.9663V1.63971L43.313 2.08647L43.5487 2.43119ZM43.5487 7.71661H43.1311V8.13423H43.5487V7.71661ZM45.9861 7.71661H46.4037V7.299H45.9861V7.71661ZM45.9861 11.2305V11.6482H46.4037V11.2305H45.9861ZM43.5487 11.2305V10.8129H43.1311V11.2305H43.5487ZM43.5487 24.7279V25.1455H43.9663V24.7279H43.5487ZM39.5991 24.7279H39.1815V25.1455H39.5991V24.7279ZM39.5991 11.2305H40.0167V10.8129H39.5991V11.2305ZM66.7526 20.4966L67.1142 20.2878L66.7526 20.4966ZM78.8124 23.728L79.0212 24.0897L79.3772 23.8841L79.1773 23.5249L78.8124 23.728ZM69.9694 8.41164L69.7606 8.04998L69.9694 8.41164ZM79.6145 8.91262L79.9474 9.16479L80.2002 8.83104L79.8658 8.57908L79.6145 8.91262ZM77.3119 11.9522L77.0598 12.2852L77.3927 12.5372L77.6448 12.2044L77.3119 11.9522ZM71.8387 11.5912L71.6299 11.2295L71.8387 11.5912ZM70.0724 18.5799L69.7107 18.7887L70.0724 18.5799ZM77.0186 20.5049L77.3835 20.3018L77.1772 19.9311L76.8098 20.1433L77.0186 20.5049ZM93.0795 9.79126L92.7602 10.0605L93.4971 10.9344V9.79126H93.0795ZM93.0795 7.75841V7.3408H92.6619V7.75841H93.0795ZM97 7.75841H97.4176V7.3408H97V7.75841ZM97 24.7473V25.1649H97.4176V24.7473H97ZM93.0795 24.7473H92.6619V25.1649H93.0795V24.7473ZM93.0795 22.5402H93.4971V21.328L92.7505 22.2829L93.0795 22.5402ZM63.1475 20.5073L63.5154 20.7048L63.707 20.3479L63.3561 20.1455L63.1475 20.5073ZM59.9239 18.6487L60.1325 18.2869L59.7307 18.0552L59.5423 18.4791L59.9239 18.6487ZM49.992 17.6323V17.2147H49.468L49.5849 17.7255L49.992 17.6323ZM63.8154 17.6323V18.0499H64.233V17.6323H63.8154ZM50.1953 14.3507L49.7991 14.2186L49.6159 14.7683H50.1953V14.3507ZM59.8368 14.3507V14.7683H60.3733L60.2417 14.2482L59.8368 14.3507ZM20.7648 24.7473H20.3472V25.1649H20.7648V24.7473ZM20.7648 7.75841V7.3408H20.3472V7.75841H20.7648ZM24.6853 24.7473V25.1649H25.1029V24.7473H24.6853ZM32.4973 24.7473H32.0797V25.1649H32.4973V24.7473ZM36.4759 24.7473V25.1649H36.8935V24.7473H36.4759ZM24.6563 9.84935H24.2387V11.0829L24.988 10.103L24.6563 9.84935ZM24.6563 7.75841H25.0739V7.3408H24.6563V7.75841ZM1 9.32866H3.24189V8.49343H1V9.32866ZM1.41761 12.1458V8.91105H0.582387V12.1458H1.41761ZM3.24189 11.7282H1V12.5634H3.24189V11.7282ZM3.69153 24.7313L3.6595 12.1447L2.82428 12.1468L2.85631 24.7334L3.69153 24.7313ZM7.18121 24.3148H3.27392V25.15H7.18121V24.3148ZM6.7636 12.1458V24.7324H7.59882V12.1458H6.7636ZM10.9284 11.7282H7.18121V12.5634H10.9284V11.7282ZM10.5108 8.91105V12.1458H11.346V8.91105H10.5108ZM7.18121 9.32866H10.9284V8.49343H7.18121V9.32866ZM6.7636 6.98943V8.91105H7.59882V6.98943H6.7636ZM9.61526 3.97763C8.55599 3.97763 7.79786 4.2524 7.32694 4.84366C6.87387 5.41253 6.7636 6.18489 6.7636 6.98943H7.59882C7.59882 6.22463 7.71274 5.69991 7.98027 5.36401C8.22997 5.05051 8.68886 4.81285 9.61526 4.81285V3.97763ZM10.9924 3.97763H9.61526V4.81285H10.9924V3.97763ZM10.5748 1.06443V4.39524H11.41V1.06443H10.5748ZM8.97472 1.32191C9.57246 1.32191 10.2792 1.35369 10.9143 1.47467L11.0706 0.654195C10.3605 0.518953 9.59401 0.486684 8.97472 0.486684V1.32191ZM3.6595 6.98943C3.6595 4.91602 4.21538 3.51798 5.11553 2.63576C6.01747 1.75179 7.33 1.32191 8.97472 1.32191V0.486684C7.19255 0.486684 5.63867 0.953563 4.53091 2.03925C3.42137 3.12669 2.82428 4.77121 2.82428 6.98943H3.6595ZM3.6595 8.91105V6.98943H2.82428V8.91105H3.6595ZM12.5278 7.74092V24.7298H13.363V7.74092H12.5278ZM16.895 7.32331H12.9454V8.15854H16.895V7.32331ZM17.3126 24.7298V7.74092H16.4774V24.7298H17.3126ZM12.9454 25.1474H16.895V24.3122H12.9454V25.1474ZM14.9202 0.702016C14.072 0.702016 13.3418 0.9813 12.8231 1.50441C12.305 2.02696 12.0341 2.75613 12.0341 3.58809H12.8693C12.8693 2.93898 13.0777 2.43391 13.4162 2.0925C13.7542 1.75165 14.2583 1.53724 14.9202 1.53724V0.702016ZM17.8063 3.58809C17.8063 2.75964 17.5448 2.02993 17.0294 1.50567C16.5128 0.980283 15.7812 0.702016 14.9202 0.702016V1.53724C15.5983 1.53724 16.1009 1.75267 16.4338 2.09124C16.7678 2.43095 16.971 2.93546 16.971 3.58809H17.8063ZM14.9202 6.44513C15.7776 6.44513 16.509 6.17637 17.0269 5.65851C17.5445 5.14089 17.8063 4.41691 17.8063 3.58809H16.971C16.971 4.24036 16.7681 4.73609 16.4363 5.06791C16.1047 5.39949 15.6019 5.6099 14.9202 5.6099V6.44513ZM12.0341 3.58809C12.0341 4.40967 12.2771 5.13493 12.7892 5.65595C13.3026 6.17835 14.0373 6.44513 14.9202 6.44513V5.6099C14.2059 5.6099 13.7063 5.39751 13.3848 5.07047C13.062 4.74204 12.8693 4.2476 12.8693 3.58809H12.0341ZM36.7092 7.71661V11.2305H37.5444V7.71661H36.7092ZM39.5991 7.299H37.1268V8.13423H39.5991V7.299ZM39.1815 5.13198V7.71661H40.0167V5.13198H39.1815ZM43.313 2.08647L39.3634 4.78726L39.8348 5.47671L43.7844 2.77592L43.313 2.08647ZM43.9663 7.71661V2.43119H43.1311V7.71661H43.9663ZM45.9861 7.299H43.5487V8.13423H45.9861V7.299ZM46.4037 11.2305V7.71661H45.5685V11.2305H46.4037ZM43.5487 11.6482H45.9861V10.8129H43.5487V11.6482ZM43.9663 24.7279V11.2305H43.1311V24.7279H43.9663ZM39.5991 25.1455H43.5487V24.3103H39.5991V25.1455ZM39.1815 11.2305V24.7279H40.0167V11.2305H39.1815ZM37.1268 11.6482H39.5991V10.8129H37.1268V11.6482ZM66.3909 20.7054C68.9443 25.128 74.5184 26.6893 79.0212 24.0897L78.6036 23.3664C74.505 25.7327 69.4397 24.3156 67.1142 20.2878L66.3909 20.7054ZM69.7606 8.04998C65.2587 10.6492 63.7935 16.2066 66.3909 20.7054L67.1142 20.2878C64.7457 16.1853 66.0789 11.1401 70.1783 8.77331L69.7606 8.04998ZM79.8658 8.57908C77.0641 6.46808 73.2037 6.06211 69.7606 8.04998L70.1783 8.77331C73.3245 6.95684 76.823 7.33218 79.3632 9.24615L79.8658 8.57908ZM77.6448 12.2044L79.9474 9.16479L79.2816 8.66045L76.979 11.7001L77.6448 12.2044ZM72.0475 11.9528C73.7067 10.9949 75.5796 11.1646 77.0598 12.2852L77.5639 11.6193C75.8275 10.3047 73.5923 10.0965 71.6299 11.2295L72.0475 11.9528ZM70.434 18.3711C69.1039 16.0673 69.7708 13.2673 72.0475 11.9528L71.6299 11.2295C68.9269 12.7901 68.1657 16.1128 69.7107 18.7887L70.434 18.3711ZM76.8098 20.1433C74.5065 21.473 71.7343 20.6232 70.434 18.3711L69.7107 18.7887C71.2274 21.4158 74.5006 22.4409 77.2274 20.8666L76.8098 20.1433ZM79.1773 23.5249L77.3835 20.3018L76.6537 20.708L78.4475 23.9311L79.1773 23.5249ZM78.7804 16.2674C78.7804 22.0912 83.2541 25.5134 87.5617 25.5134V24.6781C83.6799 24.6781 79.6156 21.5952 79.6156 16.2674H78.7804ZM87.6198 6.99231C83.1061 6.99231 78.7804 10.3881 78.7804 16.2674H79.6156C79.6156 10.8788 83.5374 7.82754 87.6198 7.82754V6.99231ZM93.3988 9.52207C92.0631 7.93794 89.9669 6.99231 87.6198 6.99231V7.82754C89.7451 7.82754 91.5984 8.68243 92.7602 10.0605L93.3988 9.52207ZM92.6619 7.75841V9.79126H93.4971V7.75841H92.6619ZM97 7.3408H93.0795V8.17602H97V7.3408ZM97.4176 24.7473V7.75841H96.5824V24.7473H97.4176ZM93.0795 25.1649H97V24.3296H93.0795V25.1649ZM92.6619 22.5402V24.7473H93.4971V22.5402H92.6619ZM87.5617 25.5134C89.915 25.5134 92.0738 24.5045 93.4085 22.7974L92.7505 22.2829C91.5876 23.7703 89.6808 24.6781 87.5617 24.6781V25.5134ZM92.8652 16.2093C92.8652 18.9336 90.8819 21.0771 88.2006 21.0771V21.9123C91.3856 21.9123 93.7004 19.3512 93.7004 16.2093H92.8652ZM88.2006 11.3995C90.8863 11.3995 92.8652 13.5186 92.8652 16.2093H93.7004C93.7004 13.0918 91.3812 10.5643 88.2006 10.5643V11.3995ZM83.478 16.2093C83.478 13.4991 85.5349 11.3995 88.2006 11.3995V10.5643C85.0583 10.5643 82.6428 13.0532 82.6428 16.2093H83.478ZM88.2006 21.0771C85.5393 21.0771 83.478 18.9531 83.478 16.2093H82.6428C82.6428 19.3898 85.0538 21.9123 88.2006 21.9123V21.0771ZM55.2193 24.6781C50.1092 24.6781 46.6634 20.9764 46.6634 16.2964H45.8281C45.8281 21.4322 49.6425 25.5134 55.2193 25.5134V24.6781ZM62.7795 20.3098C61.3688 22.9376 58.8939 24.6781 55.2193 24.6781V25.5134C59.2116 25.5134 61.964 23.5947 63.5154 20.7048L62.7795 20.3098ZM59.7153 19.0105L62.9389 20.8691L63.3561 20.1455L60.1325 18.2869L59.7153 19.0105ZM55.2193 22.0575C57.5915 22.0575 59.4254 20.7986 60.3056 18.8183L59.5423 18.4791C58.7962 20.1579 57.2613 21.2223 55.2193 21.2223V22.0575ZM49.5849 17.7255C49.8799 19.0139 50.5369 20.1025 51.5087 20.868C52.4807 21.6337 53.7437 22.0575 55.2193 22.0575V21.2223C53.9071 21.2223 52.8323 20.8475 52.0255 20.2119C51.2186 19.5762 50.6559 18.6611 50.3991 17.5391L49.5849 17.7255ZM63.8154 17.2147H49.992V18.0499H63.8154V17.2147ZM63.3978 16.1512V17.6323H64.233V16.1512H63.3978ZM55.0741 7.82754C59.8957 7.82754 63.3978 11.3569 63.3978 16.1512H64.233C64.233 10.8974 60.3588 6.99231 55.0741 6.99231V7.82754ZM46.6634 16.2964C46.6634 11.5575 50.3424 7.82754 55.0741 7.82754V6.99231C49.8739 6.99231 45.8281 11.1034 45.8281 16.2964H46.6634ZM55.0741 10.4482C52.5392 10.4482 50.552 11.9599 49.7991 14.2186L50.5915 14.4827C51.2325 12.5595 52.9045 11.2834 55.0741 11.2834V10.4482ZM60.2417 14.2482C59.9301 13.0175 59.2986 12.0574 58.3962 11.4088C57.4972 10.7626 56.361 10.4482 55.0741 10.4482V11.2834C56.2266 11.2834 57.1814 11.5643 57.9087 12.087C58.6326 12.6073 59.1627 13.3896 59.432 14.4532L60.2417 14.2482ZM50.1953 14.7683H59.8368V13.9331H50.1953V14.7683ZM21.1824 24.7473V7.75841H20.3472V24.7473H21.1824ZM24.6853 24.3296H20.7648V25.1649H24.6853V24.3296ZM24.2677 15.4252V24.7473H25.1029V15.4252H24.2677ZM28.6639 10.3901C27.4409 10.3901 26.3303 10.8372 25.5282 11.7126C24.728 12.5859 24.2677 13.8488 24.2677 15.4252H25.1029C25.1029 14.0104 25.5139 12.9645 26.144 12.2769C26.7722 11.5913 27.6508 11.2253 28.6639 11.2253V10.3901ZM32.9149 15.0767C32.9149 13.6942 32.5811 12.5157 31.8545 11.6776C31.1195 10.8298 30.0346 10.3901 28.6639 10.3901V11.2253C29.8489 11.2253 30.6806 11.5987 31.2234 12.2247C31.7746 12.8605 32.0797 13.8164 32.0797 15.0767H32.9149ZM32.9149 24.7473V15.0767H32.0797V24.7473H32.9149ZM36.4759 24.3296H32.4973V25.1649H36.4759V24.3296ZM36.0583 14.6701V24.7473H36.8935V14.6701H36.0583ZM29.7384 7.82754C31.7848 7.82754 33.3476 8.45841 34.4022 9.5928C35.4607 10.7315 36.0583 12.4326 36.0583 14.6701H36.8935C36.8935 12.2901 36.2568 10.3611 35.0139 9.02413C33.767 7.68279 31.9611 6.99231 29.7384 6.99231V7.82754ZM24.988 10.103C26.0427 8.7238 27.6632 7.82754 29.7384 7.82754V6.99231C27.3994 6.99231 25.535 8.01273 24.3246 9.59567L24.988 10.103ZM24.2387 7.75841V9.84935H25.0739V7.75841H24.2387ZM20.7648 8.17602H24.6563V7.3408H20.7648V8.17602Z" fill="white" mask="url(#path-1-outside-1_12921_4327)"/>
</g>
<defs>
<filter id="filter0_d_12921_4327" x="0.582275" y="0.486328" width="96.8352" height="25.1944" filterUnits="userSpaceOnUse" color-interpolation-filters="sRGB">
<feFlood flood-opacity="0" result="BackgroundImageFix"/>
<feColorMatrix in="SourceAlpha" type="matrix" values="0 0 0 0 0 0 0 0 0 0 0 0 0 0 0 0 0 0 127 0" result="hardAlpha"/>
<feOffset dy="0.167045"/>
<feComposite in2="hardAlpha" operator="out"/>
<feColorMatrix type="matrix" values="0 0 0 0 0 0 0 0 0 0 0 0 0 0 0 0 0 0 0.1 0"/>
<feBlend mode="normal" in2="BackgroundImageFix" result="effect1_dropShadow_12921_4327"/>
<feBlend mode="normal" in="SourceGraphic" in2="effect1_dropShadow_12921_4327" result="shape"/>
</filter>
</defs>
</svg>
